<svg width="2192" height="54" viewBox="0 0 2192 54" fill="none" xmlns="http://www.w3.org/2000/svg">
<mask id="mask0" mask-type="alpha" maskUnits="userSpaceOnUse" x="0" y="0" width="2192" height="54">
<rect width="2192" height="54" fill="black"/>
</mask>
<g mask="url(#mask0)">
<path d="M520.05 27C452.812 27 402.668 63.6667 386 82H658C640.032 63.6667 587.287 27 520.05 27Z" fill="#111A28"/>
<path d="M134.05 27C66.812 27 16.6675 63.6667 0 82H272C254.032 63.6667 201.287 27 134.05 27Z" fill="#111A28"/>
<path d="M902.05 27C834.812 27 784.668 63.6667 768 82H1040C1022.03 63.6667 969.287 27 902.05 27Z" fill="#111A28"/>
<path d="M1284.05 27C1216.81 27 1166.67 63.6667 1150 82H1422C1404.03 63.6667 1351.29 27 1284.05 27Z" fill="#111A28"/>
<path d="M1670.05 27C1602.81 27 1552.67 63.6667 1536 82H1808C1790.03 63.6667 1737.29 27 1670.05 27Z" fill="#111A28"/>
<path d="M2054.05 27C1986.81 27 1936.67 63.6667 1920 82H2192C2174.03 63.6667 2121.29 27 2054.05 27Z" fill="#111A28"/>
<path d="M325 0C230.2 0 159.5 62.6667 136 94H519.5C494.167 62.6667 419.8 0 325 0Z" fill="#1A2E3A"/>
<path d="M710 0C615.2 0 544.5 62.6667 521 94H904.5C879.167 62.6667 804.8 0 710 0Z" fill="#1A2E3A"/>
<path d="M1095 0C1000.2 0 929.5 62.6667 906 94H1289.5C1264.17 62.6667 1189.8 0 1095 0Z" fill="#1A2E3A"/>
<path d="M1480 0C1385.2 0 1314.5 62.6667 1291 94H1674.5C1649.17 62.6667 1574.8 0 1480 0Z" fill="#1A2E3A"/>
<path d="M1865 0C1770.2 0 1699.5 62.6667 1676 94H2059.5C2034.17 62.6667 1959.8 0 1865 0Z" fill="#1A2E3A"/>
</g>
</svg>
